PathFileType	4	(X/Y/Z)	C:/Users/opensim2020/Desktop/walking_exp_matlab/subject01_walking11_straight_03.trc	
DataRate	CameraRate	NumFrames	NumMarkers	Units	OrigDataRate	OrigDataStartFrame	OrigNumFrames	
100.00	100.00	8	44	mm	100.00	2997	338	
Frame#	Time	LFHD			RFHD			LBHD			RBHD			C7			T10			CLAV			STRN			RBAK			LSHO			LUPA			LELB			LFRM			LWRA			LWRB			LFIN			RSHO			RUPA			RELB			RFRM			RWRA			RWRB			RFIN			LASI			RASI			LPSI			RPSI			LTHI			LKNE			LTIB			LANK			LHEE			LTOE			RTHI			RKNE			RTIB			RANK			RHEE			RTOE			*39			*40			*41			*42			*43			
		X1	Y1	Z1	X2	Y2	Z2	X3	Y3	Z3	X4	Y4	Z4	X5	Y5	Z5	X6	Y6	Z6	X7	Y7	Z7	X8	Y8	Z8	X9	Y9	Z9	X10	Y10	Z10	X11	Y11	Z11	X12	Y12	Z12	X13	Y13	Z13	X14	Y14	Z14	X15	Y15	Z15	X16	Y16	Z16	X17	Y17	Z17	X18	Y18	Z18	X19	Y19	Z19	X20	Y20	Z20	X21	Y21	Z21	X22	Y22	Z22	X23	Y23	Z23	X24	Y24	Z24	X25	Y25	Z25	X26	Y26	Z26	X27	Y27	Z27	X28	Y28	Z28	X29	Y29	Z29	X30	Y30	Z30	X31	Y31	Z31	X32	Y32	Z32	X33	Y33	Z33	X34	Y34	Z34	X35	Y35	Z35	X36	Y36	Z36	X37	Y37	Z37	X38	Y38	Z38	X39	Y39	Z39	X40	Y40	Z40	X41	Y41	Z41	X42	Y42	Z42	X43	Y43	Z43	X44	Y44	Z44	

170	1.690	1395.44470	114.78394	1672.49243	1504.73987	143.66548	1683.58850	1421.32825	16.70848	1599.51685	1537.59180	45.12710	1609.56226	1448.90234	21.31417	1422.99744	1457.82312	-4.98151	1130.36182	1448.54004	167.01736	1360.55579	1439.05042	213.47208	1204.58301	1520.82642	-27.60610	1225.95703	1288.84204	108.41313	1393.40674	1204.45569	105.81277	1208.92712	1203.02979	124.57178	1056.68616	1181.74170	199.35692	968.33868	1203.08875	313.90448	892.08234	1180.37683	265.48856	865.62885	1169.54895	337.01163	821.65546	1600.17993	100.72238	1383.70044	1691.99902	32.06707	1183.13257	1693.79358	29.02936	1059.56897	1727.26440	45.79450	941.74658	1719.72900	120.69191	820.11761	1752.94006	72.34444	824.19208	1754.11426	103.14101	742.94012	1340.78162	160.79329	921.90137	1556.40125	181.52986	931.00049	1412.51343	-20.19988	936.88397	1557.56372	-4.84709	940.06775	1294.97107	83.10352	592.25006	1307.67432	47.83216	459.95959	1297.04468	-63.88511	305.82971	1344.38977	-167.32268	109.62794	1397.14661	-219.38275	95.57480	1338.13025	-41.22746	32.59858	1621.77539	197.59825	605.17731	1593.36584	248.32736	456.97546	1606.98071	232.84891	281.59964	1564.90759	245.72054	75.71152	1516.74158	198.35510	35.61512	1559.89233	386.24945	43.13855	1485.34131	119.95313	1712.44727	-3101.93774	1973.05334	1023.64813	-3140.69458	2012.37842	1021.81439						 
171	1.700	1397.81445	121.19532	1673.25146	1507.11401	150.29376	1684.30652	1423.78210	23.06366	1600.25452	1540.00391	51.71389	1610.20459	1451.10437	27.79258	1423.53857	1459.61890	1.98472	1130.88416	1450.81653	173.58258	1361.49268	1441.29138	220.46251	1205.60278	1522.90479	-20.74158	1226.40198	1291.12549	115.01279	1394.13123	1206.48303	112.26093	1209.79077	1205.22729	130.15657	1057.37329	1183.82080	204.12158	968.44342	1204.89392	318.14673	891.31018	1182.15430	269.57736	865.33551	1171.36804	340.81897	820.73792	1602.37439	107.23022	1384.50586	1693.97278	38.80546	1183.67700	1695.76587	36.19955	1060.17029	1729.16614	53.37168	942.40735	1721.37439	128.70341	821.06799	1754.90881	80.67675	825.09467	1755.49561	111.59159	743.61719	1343.12280	168.25362	922.54230	1558.83472	188.69278	931.75586	1414.13293	-12.55405	937.82794	1559.29700	2.63088	940.75092	1296.22559	91.59409	592.61371	1308.33838	56.79987	460.25104	1297.42566	-57.38389	307.92932	1343.80042	-164.53224	113.65465	1396.56311	-216.62692	100.86173	1337.79663	-41.10413	32.84125	1623.29443	204.40970	605.57513	1594.60278	253.71454	456.97919	1607.74146	236.58626	281.43787	1564.84705	246.39789	75.51624	1517.15222	198.70056	35.89108	1559.37329	386.98334	42.05700	1487.72021	126.47929	1713.16003	-3101.93970	1973.25317	1023.50287	-3140.81519	2012.53870	1021.97931						 
172	1.710	1400.10767	127.56911	1673.97498	1509.36304	156.79172	1684.94800	1426.20508	29.39185	1601.03601	1542.38464	58.23111	1610.87598	1453.32019	34.35611	1424.11389	1461.37048	9.01917	1131.42175	1453.08215	180.10762	1362.43274	1443.54517	227.39091	1206.62854	1525.12549	-13.88215	1226.89648	1293.45605	121.63608	1394.97461	1208.42542	118.69319	1210.60229	1207.44666	135.47340	1058.03015	1185.76404	208.73015	968.50940	1206.69714	322.22128	890.47479	1183.87524	273.43307	864.88745	1173.14429	344.26062	819.67975	1604.62659	113.72747	1385.38464	1696.08911	45.56045	1184.35999	1697.83618	43.36929	1060.89270	1731.15173	61.13641	943.13177	1722.94238	136.90366	822.00146	1756.67102	88.94284	825.94873	1757.23962	120.15039	744.49701	1345.77563	176.71906	923.65143	1561.20642	195.84007	932.47363	1415.90405	-4.99747	938.83038	1561.09192	9.71770	941.62457	1297.40784	100.42138	592.92688	1308.95251	66.34438	460.46133	1297.72998	-50.33331	310.20746	1343.31604	-161.16479	117.88747	1396.10706	-213.37936	106.41820	1337.73157	-40.70115	32.95540	1624.50745	210.28026	605.75647	1595.38037	258.49872	456.62949	1608.32434	240.01021	281.26025	1564.91028	247.20049	75.54864	1517.30701	198.83276	36.14787	1558.85535	387.63892	41.37331	1490.09924	133.00392	1713.85388	-3101.91260	1973.08899	1023.63055	-3140.66699	2012.54456	1022.08063						 
173	1.720	1402.41064	134.02617	1674.71338	1511.62793	163.32013	1685.61401	1428.55884	35.79732	1601.81189	1544.69043	64.73371	1611.56580	1455.48816	40.79675	1424.66223	1463.25085	15.93168	1131.91199	1455.33594	186.59451	1363.35278	1445.76111	234.24289	1207.60901	1527.40662	-6.99507	1227.37524	1295.65808	128.17722	1395.72278	1210.23193	125.52678	1211.47119	1209.68640	140.79260	1058.71118	1187.73669	213.18481	968.53229	1208.48425	326.08856	889.50104	1185.55823	277.04736	864.36163	1175.03979	347.66367	818.55994	1606.72961	120.21449	1386.21704	1698.30237	52.42425	1185.11218	1699.94226	50.55171	1061.55188	1733.08630	68.94522	943.83783	1724.54688	145.18758	823.02869	1758.31433	97.43817	826.62823	1758.89185	129.00237	745.46252	1347.95593	183.89142	924.38068	1563.49609	202.98030	933.13519	1417.73438	2.36349	939.73547	1562.93848	17.34613	942.20618	1298.53394	109.74086	593.19220	1309.32190	76.58292	460.86395	1298.07617	-42.76591	312.56888	1342.73083	-157.47816	122.36304	1395.88013	-209.44287	112.60803	1337.78076	-40.24020	32.95854	1626.01306	216.01184	606.44788	1596.17310	263.09323	456.39978	1608.16956	242.51729	280.47473	1564.74304	247.67941	75.45260	1517.40393	198.95171	36.36740	1558.42139	388.03201	40.79485	1492.35254	139.49701	1714.42505	-3102.02173	1973.14978	1023.55798	-3140.72754	2012.57727	1022.16498						 
174	1.730	1404.66223	140.35602	1675.46265	1513.84290	169.79486	1686.25464	1430.81531	42.16665	1602.59961	1546.95422	71.19116	1612.28748	1457.59680	47.21334	1425.22144	1465.25415	22.74613	1132.49036	1457.51953	193.07524	1364.24365	1448.06079	241.06171	1208.62952	1529.79150	-0.17489	1227.93213	1297.88892	134.80183	1396.50000	1212.11182	132.12671	1212.31470	1211.87610	146.03679	1059.48389	1189.65125	217.47188	968.51434	1210.31042	329.73407	888.38257	1187.28967	280.44925	863.82086	1176.82068	350.71289	817.26581	1608.93250	126.77452	1387.08350	1700.66528	59.24594	1185.89246	1702.01526	57.82894	1062.21619	1735.01709	76.92973	944.50177	1726.16943	153.62698	824.00433	1759.88147	105.78734	827.27136	1760.42249	137.95525	746.35852	1350.41931	190.82664	925.19037	1565.59509	210.00772	933.72925	1419.65271	9.55624	940.60815	1564.90283	24.48800	942.99786	1299.57776	119.50069	593.46405	1309.68579	87.35700	461.03653	1298.45642	-34.78158	315.19403	1342.29407	-153.28859	127.02811	1395.80408	-204.88898	119.08138	1337.82324	-39.79181	33.07041	1625.10681	218.39021	604.04047	1597.00122	267.36163	456.01901	1609.12659	245.60641	280.70755	1564.65637	248.20413	75.31847	1517.45569	199.08302	36.56683	1558.26526	388.58908	40.33250	1494.60083	145.96190	1715.09302	-3101.92627	1973.18665	1023.56915	-3140.66431	2012.50269	1022.13873						 
175	1.740	1406.82312	146.71097	1676.14624	1515.95874	176.27440	1686.89148	1433.08398	48.41527	1603.41577	1549.17407	77.58645	1613.02527	1459.74207	53.60371	1425.80408	1467.35120	29.54617	1132.96313	1459.66602	199.52863	1365.06274	1450.25122	247.78433	1209.54346	1532.15381	6.60428	1228.50903	1300.06177	141.34988	1397.13403	1213.81396	138.56487	1213.01160	1213.95557	151.21925	1059.99243	1191.55676	221.60556	968.45502	1212.06091	333.14838	887.15930	1188.98328	283.61542	863.09198	1178.54919	353.44788	816.00085	1611.03711	133.27299	1387.88208	1703.05127	66.24123	1186.64001	1704.22485	65.06432	1062.79175	1737.02185	84.89803	945.05170	1727.83545	162.19258	825.03326	1761.78247	114.44633	828.08569	1761.90845	146.97862	747.12921	1352.65137	197.63289	925.98163	1567.65833	216.96899	934.23816	1421.65442	16.47180	941.33527	1566.94580	31.17963	944.11932	1300.47925	129.68571	593.65674	1310.00427	98.85799	461.15726	1298.80420	-26.38956	318.13849	1342.15198	-148.65057	132.18372	1395.92444	-199.58728	125.85676	1337.79211	-39.16834	33.22912	1626.88623	223.79660	604.74689	1597.94641	271.21091	455.56311	1609.55542	247.94048	280.35913	1564.51526	248.47267	75.25257	1517.44263	199.17606	36.77513	1558.04285	389.11288	39.89613	1496.75232	152.48878	1715.76892	-3101.93066	1973.01196	1023.29553	-3140.82861	2012.46899	1022.02930						 
176	1.750	1408.84277	153.01743	1676.77771	1518.00183	182.72809	1687.51550	1435.27515	54.71806	1604.19312	1551.31238	83.97437	1613.79138	1461.76575	59.92922	1426.30237	1469.56213	36.34713	1133.49658	1461.80334	205.96072	1365.84387	1452.42029	254.41985	1210.38086	1534.49097	13.32446	1228.99182	1302.19055	147.94446	1397.77319	1215.82690	145.01614	1213.75073	1216.03406	156.32327	1060.59985	1193.41248	225.77261	968.32947	1213.83899	336.34338	885.76477	1190.68506	286.57327	862.30151	1180.27319	355.88861	814.39789	1613.10962	139.76378	1388.61853	1705.45935	73.23457	1187.29150	1706.35046	72.41946	1063.29504	1739.06848	92.72629	945.60327	1729.44299	170.79977	825.98596	1763.66614	123.32672	828.80511	1763.47742	156.22163	747.98596	1354.94019	204.25745	926.69366	1569.66003	223.76025	934.65753	1423.73083	23.19718	941.95935	1569.21057	37.92697	945.22601	1301.33057	140.19203	593.76807	1310.11780	110.70602	461.25919	1299.18262	-17.55603	321.40402	1341.99976	-143.19785	137.45110	1396.45276	-193.35994	133.01558	1337.86389	-38.42025	33.35249	1628.26880	228.37701	604.63556	1599.10681	274.67450	455.08438	1609.59705	249.62018	279.57358	1564.41699	248.82106	75.12010	1517.29614	199.26057	36.67723	1557.89514	389.53061	39.49461	1498.85303	158.96002	1716.44812	-3101.92993	1973.06189	1023.62988	-3140.60278	2012.47058	1022.02728						 
177	1.760	1410.88635	159.38629	1677.36584	1519.94336	189.12967	1688.04553	1437.37451	61.01638	1604.92737	1553.44348	90.41484	1614.54541	1463.75012	66.32127	1426.75598	1471.80676	42.98762	1133.88867	1463.87817	212.31093	1366.58545	1454.51770	261.00830	1211.15051	1536.80981	19.97082	1229.51379	1304.28540	154.47113	1398.45081	1217.82300	151.15233	1214.36829	1218.02832	161.50714	1061.17798	1195.25659	229.73595	968.15424	1215.68201	339.30978	884.23285	1192.39075	289.33710	861.41479	1182.02563	358.10913	812.67072	1615.14795	146.20404	1389.34009	1707.91333	80.40266	1187.95508	1708.61267	79.84029	1063.76843	1741.07227	100.88940	946.07916	1731.13611	179.47408	826.95123	1765.53125	132.15010	829.44659	1765.14539	165.60202	748.82520	1357.05505	210.87662	927.45990	1571.58374	230.37955	934.94873	1425.76440	29.62316	942.43915	1571.22375	44.56762	946.00873	1302.03967	151.02647	593.91425	1310.12329	123.10616	461.39978	1299.51306	-8.29734	324.89063	1342.00134	-137.39650	143.02934	1397.02917	-186.80952	140.46092	1338.12415	-37.58794	33.91288	1629.77588	232.95314	604.60114	1600.36768	277.78458	454.63669	1610.66736	251.60376	279.70612	1564.58240	249.24333	75.15369	1517.44824	199.35258	36.83162	1557.70679	389.83197	39.11898	1500.85901	165.47205	1717.08911	-3102.00488	1973.05530	1023.29974	-3140.74341	2012.46570	1022.08759						 
